<svg width="121" height="40" viewBox="0 0 121 40" fill="none" xmlns="http://www.w3.org/2000/svg">
    <path d="M120.993 0.799805H0L4.93452 28.3664L61.0331 39.1999L116.595 28.3664L120.993 0.799805Z" fill="#AD2724"/>
    <path d="M5.39737 27.9098L0.640534 1.33586H120.364L116.125 27.9119L61.0326 38.6539L5.39737 27.9098Z"
          stroke="#2F2F2F" stroke-opacity="0.15" stroke-width="1.07211"/>
    <path d="M21.5186 24.6865V10.9652H27.312C27.4454 10.9652 27.6233 10.9716 27.8456 10.9843C28.0743 10.9907 28.2776 11.0097 28.4555 11.0415C29.2749 11.1685 29.9451 11.4385 30.466 11.8514C30.9933 12.2643 31.3808 12.7852 31.6285 13.4141C31.8763 14.0367 32.0001 14.7322 32.0001 15.5009C32.0001 16.6507 31.7143 17.6353 31.1426 18.4548C30.5708 19.2679 29.6751 19.7697 28.4555 19.9603L27.312 20.0365H24.1104V24.6865H21.5186ZM29.2559 24.6865L26.5497 19.1027L29.2178 18.5882L32.1907 24.6865H29.2559ZM24.1104 17.6163H27.1977C27.3311 17.6163 27.4772 17.6099 27.636 17.5972C27.7948 17.5845 27.9409 17.5591 28.0743 17.521C28.4237 17.4257 28.6937 17.2669 28.8843 17.0445C29.0748 16.8158 29.2051 16.5649 29.2749 16.2918C29.3512 16.0123 29.3893 15.7486 29.3893 15.5009C29.3893 15.2531 29.3512 14.9927 29.2749 14.7195C29.2051 14.44 29.0748 14.1891 28.8843 13.9668C28.6937 13.7381 28.4237 13.5761 28.0743 13.4808C27.9409 13.4427 27.7948 13.4173 27.636 13.4046C27.4772 13.3919 27.3311 13.3855 27.1977 13.3855H24.1104V17.6163ZM39.0689 24.9724C38.0144 24.9724 37.0838 24.7469 36.277 24.2958C35.4766 23.8385 34.8477 23.2128 34.3903 22.4187C33.9393 21.6183 33.7138 20.7035 33.7138 19.6744C33.7138 18.5501 33.9361 17.5718 34.3808 16.7396C34.8255 15.9074 35.4385 15.2627 36.2198 14.8053C37.0012 14.3416 37.9001 14.1097 38.9165 14.1097C39.9964 14.1097 40.9143 14.3638 41.6702 14.872C42.4262 15.3802 42.9852 16.0948 43.3473 17.0159C43.7094 17.9371 43.8364 19.0201 43.7284 20.2652H41.1652V19.3124C41.1652 18.2642 40.9969 17.5114 40.6602 17.0541C40.3299 16.5903 39.7867 16.3585 39.0308 16.3585C38.1478 16.3585 37.4967 16.6284 37.0774 17.1684C36.6645 17.702 36.4581 18.4929 36.4581 19.541C36.4581 20.5003 36.6645 21.2435 37.0774 21.7708C37.4967 22.2917 38.1097 22.5521 38.9165 22.5521C39.4247 22.5521 39.8598 22.4409 40.2219 22.2186C40.584 21.9963 40.8603 21.6755 41.0509 21.2562L43.6427 21.9994C43.2552 22.9396 42.6422 23.6701 41.8036 24.191C40.9715 24.7119 40.0599 24.9724 39.0689 24.9724ZM35.6577 20.2652V18.3404H42.4802V20.2652H35.6577ZM57.9881 24.6865V18.6072C57.9881 17.9275 57.8261 17.4003 57.5021 17.0255C57.1845 16.6443 56.743 16.4538 56.1776 16.4538C55.8155 16.4538 55.5011 16.5395 55.2343 16.711C54.9675 16.8762 54.7579 17.1112 54.6054 17.4162C54.4593 17.7147 54.3862 18.0609 54.3862 18.4548L53.3 17.7306C53.3 17.0255 53.4651 16.4029 53.7955 15.863C54.1321 15.323 54.58 14.9038 55.139 14.6052C55.7044 14.3003 56.3301 14.1478 57.0162 14.1478C58.1914 14.1478 59.0775 14.4972 59.6747 15.196C60.2781 15.8884 60.5799 16.7968 60.5799 17.9212V24.6865H57.9881ZM45.5818 24.6865V14.3956H47.8686V17.8068H48.1926V24.6865H45.5818ZM51.7944 24.6865V18.6072C51.7944 17.9275 51.6325 17.4003 51.3085 17.0255C50.9909 16.6443 50.5494 16.4538 49.984 16.4538C49.444 16.4538 49.0089 16.6412 48.6786 17.0159C48.3546 17.3844 48.1926 17.864 48.1926 18.4548L47.1063 17.6925C47.1063 17.0191 47.2747 16.4156 47.6114 15.882C47.948 15.3484 48.3991 14.926 48.9644 14.6147C49.5362 14.3035 50.1746 14.1478 50.8797 14.1478C51.6865 14.1478 52.3471 14.3193 52.8617 14.6624C53.3826 15.0054 53.7669 15.4628 54.0146 16.0345C54.2624 16.6062 54.3862 17.2351 54.3862 17.9212V24.6865H51.7944ZM65.9162 24.9724C65.1793 24.9724 64.5536 24.8326 64.0391 24.5531C63.5309 24.2673 63.1434 23.8893 62.8766 23.4192C62.6161 22.9428 62.4859 22.4187 62.4859 21.847C62.4859 21.3705 62.559 20.9354 62.7051 20.5416C62.8512 20.1477 63.0862 19.8015 63.4102 19.5029C63.7405 19.198 64.182 18.9439 64.7347 18.7406C65.1158 18.6009 65.57 18.477 66.0973 18.369C66.6245 18.261 67.2217 18.1594 67.8887 18.0641C68.5557 17.9625 69.2894 17.8513 70.0898 17.7306L69.156 18.2451C69.156 17.6353 69.0099 17.1875 68.7177 16.9016C68.4254 16.6157 67.9363 16.4728 67.2502 16.4728C66.8691 16.4728 66.4721 16.5649 66.0592 16.7491C65.6463 16.9334 65.3572 17.2605 65.1921 17.7306L62.848 16.9874C63.1085 16.1361 63.5976 15.4437 64.3154 14.9101C65.0332 14.3765 66.0115 14.1097 67.2502 14.1097C68.1586 14.1097 68.9654 14.2495 69.6705 14.529C70.3756 14.8085 70.9093 15.2913 71.2713 15.9773C71.4746 16.3585 71.5953 16.7396 71.6334 17.1208C71.6715 17.5019 71.6906 17.9275 71.6906 18.3976V24.6865H69.4228V22.5712L69.7468 23.0095C69.2449 23.7019 68.7018 24.2037 68.1174 24.515C67.5393 24.8199 66.8056 24.9724 65.9162 24.9724ZM66.4689 22.9332C66.9453 22.9332 67.3455 22.8507 67.6695 22.6855C67.9998 22.514 68.2603 22.3202 68.4509 22.1043C68.6478 21.8883 68.7812 21.7072 68.8511 21.5611C68.9845 21.2816 69.0607 20.9576 69.0797 20.5892C69.1052 20.2144 69.1179 19.9031 69.1179 19.6554L69.8802 19.846C69.1115 19.973 68.489 20.081 68.0125 20.1699C67.5361 20.2525 67.1518 20.3287 66.8596 20.3986C66.5674 20.4685 66.3101 20.5447 66.0877 20.6273C65.8336 20.729 65.6272 20.8401 65.4684 20.9608C65.3159 21.0752 65.2016 21.2022 65.1254 21.342C65.0555 21.4817 65.0205 21.6374 65.0205 21.8089C65.0205 22.0439 65.0777 22.2472 65.1921 22.4187C65.3127 22.5839 65.4811 22.7109 65.6971 22.7998C65.9131 22.8888 66.1703 22.9332 66.4689 22.9332ZM74.3588 24.6865V10.6794H76.9506V24.6865H74.3588ZM83.6378 24.9914C82.831 24.9914 82.1735 24.8549 81.6653 24.5817C81.1571 24.3086 80.7601 23.9623 80.4742 23.5431C80.1947 23.1238 79.9946 22.6887 79.8739 22.2377C79.7532 21.7803 79.6802 21.3642 79.6548 20.9894C79.6294 20.6146 79.6167 20.3415 79.6167 20.1699V14.3956H82.2466V19.2552C82.2466 19.4902 82.2593 19.792 82.2847 20.1604C82.3101 20.5225 82.3895 20.8878 82.5229 21.2562C82.6563 21.6246 82.8723 21.9327 83.1709 22.1805C83.4758 22.4282 83.9046 22.5521 84.4572 22.5521C84.6796 22.5521 84.9178 22.5172 85.1719 22.4473C85.426 22.3774 85.6642 22.244 85.8865 22.0471C86.1089 21.8438 86.2899 21.5484 86.4297 21.1609C86.5758 20.7671 86.6488 20.2525 86.6488 19.6173L88.1353 20.3224C88.1353 21.1355 87.9701 21.8978 87.6398 22.6093C87.3095 23.3207 86.8108 23.8956 86.1438 24.334C85.4831 24.7723 84.6478 24.9914 83.6378 24.9914ZM86.9728 24.6865V21.2753H86.6488V14.3956H89.2597V24.6865H86.9728ZM90.7793 24.6865L94.4574 19.4839L90.8556 14.3956H93.9048L95.9629 17.4447L97.983 14.3956H101.032L97.4304 19.4839L101.127 24.6865H98.0783L95.9629 21.523L93.8285 24.6865H90.7793Z"
          fill="white"/>
    <path d="M102.6 12.8093V10.8795H103.415C103.434 10.8795 103.459 10.8804 103.49 10.8822C103.522 10.8831 103.551 10.8858 103.576 10.8902C103.691 10.9081 103.786 10.9461 103.859 11.0042C103.933 11.0622 103.987 11.1355 104.022 11.2239C104.057 11.3115 104.075 11.4093 104.075 11.5174C104.075 11.6791 104.034 11.8176 103.954 11.9329C103.874 12.0472 103.748 12.1178 103.576 12.1446L103.415 12.1553H102.965V12.8093H102.6ZM103.689 12.8093L103.308 12.024L103.683 11.9516L104.101 12.8093H103.689ZM102.965 11.8149H103.399C103.418 11.8149 103.438 11.814 103.461 11.8123C103.483 11.8105 103.504 11.8069 103.522 11.8015C103.572 11.7881 103.61 11.7658 103.636 11.7345C103.663 11.7024 103.681 11.6671 103.691 11.6287C103.702 11.5894 103.707 11.5523 103.707 11.5174C103.707 11.4826 103.702 11.446 103.691 11.4075C103.681 11.3682 103.663 11.3329 103.636 11.3017C103.61 11.2695 103.572 11.2467 103.522 11.2333C103.504 11.228 103.483 11.2244 103.461 11.2226C103.438 11.2208 103.418 11.2199 103.399 11.2199H102.965V11.8149Z"
          fill="white"/>
    <circle cx="103.381" cy="11.8816" r="2.011" stroke="white" stroke-width="0.268028"/>
</svg>
