<svg width="33" height="34" viewBox="0 0 33 34" fill="none" xmlns="http://www.w3.org/2000/svg">
<path d="M33 0.5H0L2.2 24.26L16.6464 33.5L30.8 24.26L33 0.5Z" fill="#AD2724"/>
<path d="M2.63804 23.9932L0.505408 0.960773H32.4946L30.3617 23.9959L16.6438 32.9514L2.63804 23.9932Z" stroke="#2F2F2F" stroke-opacity="0.15" stroke-width="0.921546"/>
<path d="M10.2581 23V5.72H17.3981C17.5661 5.72 17.7821 5.728 18.0461 5.744C18.3101 5.752 18.5541 5.776 18.7781 5.816C19.7781 5.968 20.6021 6.3 21.2501 6.812C21.9061 7.324 22.3901 7.972 22.7021 8.756C23.0221 9.532 23.1821 10.396 23.1821 11.348C23.1821 12.756 22.8261 13.968 22.1141 14.984C21.4021 15.992 20.3101 16.616 18.8381 16.856L17.6021 16.964H13.1501V23H10.2581ZM20.1821 23L16.7741 15.968L19.7141 15.32L23.4581 23H20.1821ZM13.1501 14.264H17.2781C17.4381 14.264 17.6181 14.256 17.8181 14.24C18.0181 14.224 18.2021 14.192 18.3701 14.144C18.8501 14.024 19.2261 13.812 19.4981 13.508C19.7781 13.204 19.9741 12.86 20.0861 12.476C20.2061 12.092 20.2661 11.716 20.2661 11.348C20.2661 10.98 20.2061 10.604 20.0861 10.22C19.9741 9.828 19.7781 9.48 19.4981 9.176C19.2261 8.872 18.8501 8.66 18.3701 8.54C18.2021 8.492 18.0181 8.464 17.8181 8.456C17.6181 8.44 17.4381 8.432 17.2781 8.432H13.1501V14.264Z" fill="white"/>
<path d="M25.602 7.5V5.34H26.514C26.535 5.34 26.563 5.341 26.598 5.343C26.634 5.344 26.666 5.347 26.694 5.352C26.823 5.372 26.9285 5.4145 27.0105 5.4795C27.0935 5.5445 27.1545 5.6265 27.1935 5.7255C27.2325 5.8235 27.252 5.933 27.252 6.054C27.252 6.235 27.207 6.39 27.117 6.519C27.027 6.647 26.886 6.726 26.694 6.756L26.514 6.768H26.01V7.5H25.602ZM26.82 7.5L26.394 6.621L26.814 6.54L27.282 7.5H26.82ZM26.01 6.387H26.496C26.517 6.387 26.54 6.386 26.565 6.384C26.59 6.382 26.613 6.378 26.634 6.372C26.689 6.357 26.7315 6.332 26.7615 6.297C26.7915 6.261 26.812 6.2215 26.823 6.1785C26.835 6.1345 26.841 6.093 26.841 6.054C26.841 6.015 26.835 5.974 26.823 5.931C26.812 5.887 26.7915 5.8475 26.7615 5.8125C26.7315 5.7765 26.689 5.751 26.634 5.736C26.613 5.73 26.59 5.726 26.565 5.724C26.54 5.722 26.517 5.721 26.496 5.721H26.01V6.387Z" fill="white"/>
<circle cx="26.4" cy="6.4" r="2.26599" stroke="white" stroke-width="0.268028"/>
</svg>
