<?xml version="1.0" encoding="UTF-8" standalone="no"?>
<svg
   xmlns:dc="http://purl.org/dc/elements/1.1/"
   xmlns:cc="http://creativecommons.org/ns#"
   xmlns:rdf="http://www.w3.org/1999/02/22-rdf-syntax-ns#"
   xmlns:svg="http://www.w3.org/2000/svg"
   xmlns="http://www.w3.org/2000/svg"
   viewBox="0 0 638.65332 146.62666"
   height="146.62666"
   width="638.65332"
   xml:space="preserve"
   id="svg2"
   version="1.1"><metadata
     id="metadata8"><rdf:RDF><cc:Work
         rdf:about=""><dc:format>image/svg+xml</dc:format><dc:type
           rdf:resource="http://purl.org/dc/dcmitype/StillImage" /></cc:Work></rdf:RDF></metadata><defs
     id="defs6" /><g
     transform="matrix(1.3333333,0,0,-1.3333333,0,146.62667)"
     id="g10"><g
       transform="scale(0.1)"
       id="g12"><path
         id="path14"
         style="fill:#f1511b;fill-opacity:1;fill-rule:nonzero;stroke:none"
         d="M 1119.61,266.801 H 804.605 V 832.863 H 1119.61 V 266.801" /><path
         id="path16"
         style="fill:#e71b25;fill-opacity:1;fill-rule:nonzero;stroke:none"
         d="m 824.609,549.832 c 0,114.84 53.77,217.113 137.5,283.031 -61.234,48.207 -138.5,76.969 -222.48,76.969 -198.809,0 -359.973,-161.176 -359.973,-360 0,-198.82 161.164,-360 359.973,-360 83.98,0 161.246,28.762 222.48,76.969 -83.73,65.918 -137.5,168.191 -137.5,283.031" /><path
         id="path18"
         style="fill:#231f20;fill-opacity:1;fill-rule:nonzero;stroke:none"
         d="m 1533.32,326.754 v 13.973 h -3.65 l -4.19,-9.61 -4.2,9.61 h -3.65 v -13.973 h 2.57 v 10.543 l 3.94,-9.09 h 2.67 l 3.93,9.109 v -10.562 z m -23.11,0 v 11.59 h 4.68 v 2.359 h -11.9 v -2.359 h 4.67 v -11.59 h 2.55" /><path
         id="path20"
         style="fill:#f79410;fill-opacity:1;fill-rule:nonzero;stroke:none"
         d="m 1544.56,549.832 c 0,-198.82 -161.17,-360 -359.97,-360 -83.98,0 -161.25,28.762 -222.481,76.969 83.731,65.918 137.501,168.191 137.501,283.031 0,114.84 -53.77,217.113 -137.501,283.031 61.231,48.207 138.501,76.969 222.481,76.969 198.8,0 359.97,-161.176 359.97,-360" /><path
         id="path22"
         style="fill:#231f20;fill-opacity:1;fill-rule:nonzero;stroke:none"
         d="m 2263.55,548.277 c 0,42.071 27.55,76.625 72.62,76.625 43.08,0 72.13,-33.05 72.13,-76.625 0,-43.578 -29.05,-76.632 -72.13,-76.632 -45.07,0 -72.62,34.558 -72.62,76.632 z m 193.84,0 V 667.98 h -52.1 v -29.046 c -16.53,21.535 -41.57,35.058 -75.63,35.058 -67.11,0 -119.7,-52.594 -119.7,-125.715 0,-73.129 52.59,-125.722 119.7,-125.722 34.06,0 59.1,13.523 75.63,35.062 v -29.051 h 52.1 z m 1759.05,0 c 0,42.071 27.54,76.625 72.62,76.625 43.07,0 72.12,-33.05 72.12,-76.625 0,-43.578 -29.05,-76.632 -72.12,-76.632 -45.08,0 -72.62,34.558 -72.62,76.632 z m 252.1,-108.343 v -3.762 h 3.47 c 0.79,0 1.42,0.156 1.9,0.469 0.47,0.308 0.7,0.785 0.7,1.433 0,0.621 -0.23,1.082 -0.7,1.395 -0.48,0.308 -1.11,0.465 -1.9,0.465 z m 3.5,2.644 c 1.81,0 3.21,-0.402 4.19,-1.211 0.98,-0.804 1.47,-1.902 1.47,-3.293 0,-1.168 -0.39,-2.133 -1.17,-2.886 -0.78,-0.758 -1.89,-1.223 -3.33,-1.395 l 4.62,-5.328 h -3.62 l -4.28,5.289 h -1.38 v -5.289 h -3.01 v 14.113 z m -0.89,-18.953 c 1.64,0 3.17,0.309 4.58,0.93 1.42,0.621 2.66,1.465 3.72,2.531 1.07,1.066 1.91,2.32 2.52,3.762 0.61,1.441 0.91,2.98 0.91,4.621 0,1.633 -0.3,3.176 -0.91,4.613 -0.61,1.441 -1.45,2.695 -2.52,3.766 -1.06,1.066 -2.3,1.902 -3.72,2.511 -1.41,0.61 -2.94,0.911 -4.58,0.911 -1.67,0 -3.22,-0.301 -4.68,-0.911 -1.45,-0.609 -2.71,-1.445 -3.77,-2.511 -1.07,-1.071 -1.91,-2.325 -2.52,-3.766 -0.61,-1.437 -0.91,-2.98 -0.91,-4.613 0,-1.641 0.3,-3.18 0.91,-4.621 0.61,-1.442 1.45,-2.696 2.52,-3.762 1.06,-1.066 2.32,-1.91 3.77,-2.531 1.46,-0.621 3.01,-0.93 4.68,-0.93 z m 0,27.035 c 2.14,0 4.14,-0.398 6.01,-1.191 1.88,-0.793 3.52,-1.879 4.92,-3.258 1.4,-1.379 2.51,-2.992 3.31,-4.844 0.81,-1.847 1.21,-3.816 1.21,-5.898 0,-2.086 -0.4,-4.051 -1.21,-5.887 -0.8,-1.836 -1.91,-3.445 -3.31,-4.824 -1.4,-1.375 -3.04,-2.469 -4.92,-3.274 -1.87,-0.808 -3.87,-1.214 -6.01,-1.214 -2.19,0 -4.23,0.406 -6.13,1.214 -1.9,0.805 -3.54,1.899 -4.93,3.274 -1.39,1.379 -2.49,2.988 -3.3,4.824 -0.8,1.836 -1.21,3.801 -1.21,5.887 0,2.082 0.41,4.051 1.21,5.898 0.81,1.852 1.91,3.465 3.3,4.844 1.39,1.379 3.03,2.465 4.93,3.258 1.9,0.793 3.94,1.191 6.13,1.191 z m -60.88,97.617 v 215.871 h -52.09 V 638.934 c -16.53,21.535 -41.57,35.058 -75.63,35.058 -67.12,0 -119.71,-52.594 -119.71,-125.715 0,-73.129 52.59,-125.722 119.71,-125.722 34.06,0 59.1,13.523 75.63,35.062 v -29.051 h 52.09 z M 3103.5,627.41 c 33.56,0 55.1,-21.035 60.61,-58.101 H 3039.9 c 5.5,34.562 26.54,58.101 63.6,58.101 z m 1.01,46.582 c -70.12,0 -119.21,-51.086 -119.21,-125.715 0,-76.136 51.09,-125.722 122.71,-125.722 36.07,0 69.12,9.019 98.17,33.558 l -25.54,38.571 c -20.04,-16.028 -45.58,-25.043 -69.62,-25.043 -33.56,0 -64.11,15.523 -71.63,58.601 h 177.81 c 0.5,6.508 1,13.02 1,20.035 -0.5,74.629 -46.58,125.715 -113.69,125.715 z m 628.58,-125.715 c 0,42.071 27.55,76.625 72.63,76.625 43.08,0 72.13,-33.05 72.13,-76.625 0,-43.578 -29.05,-76.632 -72.13,-76.632 -45.08,0 -72.63,34.558 -72.63,76.632 z m 193.84,0 V 667.98 h -52.09 v -29.046 c -16.53,21.535 -41.57,35.058 -75.63,35.058 -67.11,0 -119.7,-52.594 -119.7,-125.715 0,-73.129 52.59,-125.722 119.7,-125.722 34.06,0 59.1,13.523 75.63,35.062 v -29.051 h 52.09 z m -487.85,0 c 0,-72.629 50.6,-125.722 127.73,-125.722 36.06,0 60.1,8.015 86.15,28.55 l -25.04,42.075 c -19.54,-14.028 -40.08,-21.535 -62.62,-21.535 -41.57,0.496 -72.12,30.55 -72.12,76.632 0,46.075 30.55,76.129 72.12,76.625 22.54,0 43.08,-7.507 62.62,-21.535 l 25.04,42.074 c -26.05,20.536 -50.09,28.551 -86.15,28.551 -77.13,0 -127.73,-53.09 -127.73,-125.715 z m 671.17,125.715 c -30.05,0 -49.59,-14.027 -63.11,-35.058 v 29.046 h -51.59 V 428.566 h 52.09 v 134.235 c 0,39.566 17.03,61.605 51.09,61.605 10.52,0 21.54,-1.5 32.56,-6.011 l 16.03,49.085 c -11.53,4.508 -26.55,6.512 -37.07,6.512 z M 2714.83,648.945 c -25.05,16.532 -59.6,25.047 -97.67,25.047 -60.61,0 -99.67,-29.051 -99.67,-76.633 0,-39.066 29.05,-63.109 82.64,-70.625 l 24.54,-3.504 c 28.55,-4.003 42.08,-11.515 42.08,-25.042 0,-18.532 -19.04,-29.051 -54.6,-29.051 -36.06,0 -62.11,11.523 -79.64,25.043 l -24.54,-40.567 c 28.55,-21.039 64.62,-31.058 103.68,-31.058 69.12,0 109.19,32.558 109.19,78.136 0,42.075 -31.55,64.114 -83.65,71.625 l -24.53,3.508 c -22.55,3.004 -40.58,7.508 -40.58,23.535 0,17.536 17.03,28.051 45.58,28.051 30.55,0 60.11,-11.519 74.63,-20.535 z m 671.67,25.047 c -30.05,0 -49.59,-14.027 -63.11,-35.058 V 667.98 H 3271.8 V 428.566 h 52.08 v 134.235 c 0,39.566 17.04,61.605 51.1,61.605 10.51,0 21.53,-1.5 32.55,-6.011 l 16.03,49.085 c -11.52,4.508 -26.55,6.512 -37.06,6.512 z m -444.28,-6.012 h -85.14 v 72.625 h -52.59 V 667.98 h -48.59 v -47.582 h 48.59 V 511.211 c 0,-55.598 21.53,-88.656 83.14,-88.656 22.54,0 48.58,7.015 65.11,18.531 l -15.02,44.582 c -15.53,-9.016 -32.56,-13.527 -46.08,-13.527 -26.05,0 -34.56,16.031 -34.56,40.07 v 108.187 h 85.14 z M 2163.87,428.566 v 150.262 c 0,56.598 -36.06,94.664 -94.16,95.164 -30.55,0.5 -62.1,-9.015 -84.14,-42.574 -16.53,26.543 -42.58,42.574 -79.14,42.574 -25.55,0 -50.59,-7.512 -70.12,-35.562 v 29.55 h -52.09 V 428.566 h 52.59 v 132.735 c 0,41.57 23.04,63.601 58.6,63.601 34.56,0 52.09,-22.535 52.09,-63.105 V 428.566 h 52.59 v 132.735 c 0,41.57 24.04,63.601 58.6,63.601 35.56,0 52.59,-22.535 52.59,-63.105 V 428.566 h 52.59" /></g></g></svg>